PathFileType	4	(X/Y/Z)	C:\Users\Basilio\Documents\Thesis Gigler\squatting_fais\c3dfiles\039\SLS_pre_front3\markers_experimental.trc
DataRate	CameraRate	NumFrames	NumMarkers	Units	OrigDataRate	OrigDataStartFrame	OrigNumFrames
200.000000	200.000000	4	63	mm	200.000000	270	2166
Frame#	Time	FHD			LBHD			RBHD			C7			T10			CLAV			LSHO			LUUPA			LMUPA			LDUPA			LLEP			LMEP			LRAD			LUL			LRFIN			RSHO			RUPA1			RMUPA			RDUPA			RLEP			RMEP			RRAD			RUL			RUFIN			LASI			RASI			USACR			LSACR			RSACR			LTHI1			LTHI2			LTHI3			LTHI4			LLFC			LMFC			LTIB1			LTIB2			LTIB3			LTIB4			LLMAL			LMMAL			LHEE			LMT1			LMT2			LMT5			RTHI			RTHI2			RTHI3			RTHI4			RLFC			RMFC			RTIB1			RTIB2			RTIB3			RTIB4			RLMAL			RMMAL			RHEE			RMT1			RMT2			RMT5			*61			*62			
		X1	Y1	Z1	X2	Y2	Z2	X3	Y3	Z3	X4	Y4	Z4	X5	Y5	Z5	X6	Y6	Z6	X7	Y7	Z7	X8	Y8	Z8	X9	Y9	Z9	X10	Y10	Z10	X11	Y11	Z11	X12	Y12	Z12	X13	Y13	Z13	X14	Y14	Z14	X15	Y15	Z15	X16	Y16	Z16	X17	Y17	Z17	X18	Y18	Z18	X19	Y19	Z19	X20	Y20	Z20	X21	Y21	Z21	X22	Y22	Z22	X23	Y23	Z23	X24	Y24	Z24	X25	Y25	Z25	X26	Y26	Z26	X27	Y27	Z27	X28	Y28	Z28	X29	Y29	Z29	X30	Y30	Z30	X31	Y31	Z31	X32	Y32	Z32	X33	Y33	Z33	X34	Y34	Z34	X35	Y35	Z35	X36	Y36	Z36	X37	Y37	Z37	X38	Y38	Z38	X39	Y39	Z39	X40	Y40	Z40	X41	Y41	Z41	X42	Y42	Z42	X43	Y43	Z43	X44	Y44	Z44	X45	Y45	Z45	X46	Y46	Z46	X47	Y47	Z47	X48	Y48	Z48	X49	Y49	Z49	X50	Y50	Z50	X51	Y51	Z51	X52	Y52	Z52	X53	Y53	Z53	X54	Y54	Z54	X55	Y55	Z55	X56	Y56	Z56	X57	Y57	Z57	X58	Y58	Z58	X59	Y59	Z59	X60	Y60	Z60	X61	Y61	Z61	X62	Y62	Z62	X63	Y63	Z63	

271	1.35	-343.0207824707032	1806.331787109375	-797.4354248046877	-498.0188293457032	1758.7314453125	-914.1556396484377	-469.2625122070314	1764.799560546875	-775.4720458984377	-512.2743530273439	1584.513549804688	-867.047546386719	-468.555877685547	1278.532836914063	-879.3167724609377	nan	nan	nan	-433.7832031250001	1608.284423828125	-1025.08544921875	-255.6234130859376	1584.548461914063	-1126.296142578125	-238.4687194824219	1621.406127929688	-1096.777221679688	-187.8275756835938	1602.015380859375	-1124.776611328125	-123.3275527954102	1618.070068359375	-1118.881225585938	-112.0203323364258	1551.24169921875	-1081.156616210938	144.0069427490235	1685.383666992188	-1035.677978515625	147.9464263916016	1685.827880859375	-1109.902099609375	226.5625152587891	1726.8564453125	-1031.220947265625	-409.5560302734376	1608.460083007813	-708.8446655273439	-233.1026306152344	1573.143920898438	-615.8765869140626	-212.4193572998047	1608.596923828125	-645.4662475585939	-165.4011993408203	1578.33935546875	-621.5649414062501	-105.6705398559571	1598.521118164063	-634.8585205078126	-93.37521362304689	1530.023315429688	-670.9499511718751	172.3011169433594	1673.104614257813	-723.6450195312501	175.5692138671875	1666.036743164063	-647.9553222656251	258.0586242675782	1711.75244140625	-718.9250488281251	-275.8904113769532	1117.81591796875	-997.6682739257815	-272.4612731933594	1102.125244140625	-770.7963867187502	-461.3764038085939	1153.263427734375	-878.1877441406252	-461.6387634277345	1122.620239257813	-908.1245117187502	-462.9768066406251	1119.274658203125	-849.618835449219	-341.1745605468751	833.1866455078127	-1069.277709960938	-307.8852844238282	755.2506713867189	-1068.072875976563	-260.9140625000001	759.5708007812501	-1060.671997070313	-335.4334411621094	702.5410766601564	-1057.054443359375	-339.2961425781251	578.8533325195314	-1053.752197265625	-305.7844848632813	552.8704223632814	-942.0142211914065	-289.5842895507813	427.8588867187501	-1034.3740234375	-359.7530517578126	390.241668701172	-1072.130126953125	-318.5014343261719	383.7734069824219	-1057.947387695313	-319.8443603515626	303.4302673339844	-1020.490539550781	-391.5386047363282	142.5708618164063	-1046.724975585938	-369.5084228515626	138.97265625	-963.897888183594	-460.7731933593751	108.7042770385742	-1004.977294921875	-232.8512725830079	57.80406570434572	-1001.197204589844	-242.4179229736329	58.04406356811525	-1043.091552734375	-294.3627014160157	44.17448425292969	-1090.667724609375	-315.4498596191407	828.7835693359377	-701.2332763671876	-272.5281982421876	778.0361328125002	-695.2286376953126	-241.1506652832032	783.3542480468752	-701.0267333984376	-294.2445678710938	694.7933349609376	-702.9873657226564	-320.2126159667969	554.4900512695314	-721.9887695312501	-277.2854309082032	539.2286987304689	-832.8166503906252	-290.5705566406251	341.7122497558594	-721.5115356445314	-379.0919494628907	281.4173278808594	-715.6166992187501	-334.2537231445313	270.0140991210938	-710.7033081054689	-316.7276916503907	218.9225006103516	-739.1065063476564	-387.1258544921876	128.1719818115235	-714.4920043945314	-353.7652893066407	140.4307861328125	-798.100036621094	-454.1300048828126	106.0101089477539	-767.9569702148439	-230.6341857910157	56.75447082519533	-774.8704833984377	-234.4169006347657	58.75982666015626	-728.5571899414064	-290.9272460937501	40.90181350708009	-678.6054687500001	nan	nan	nan	nan	nan	nan	
272	1.355	-343.1133117675782	1806.289428710938	-797.3015136718752	-498.1834106445314	1758.751708984375	-913.9546508789065	-469.3574218750001	1764.770263671875	-775.3387451171877	-512.2872924804689	1584.401123046875	-866.9886474609377	-468.415985107422	1278.540893554688	-879.2371826171877	nan	nan	nan	-433.8798217773439	1608.1962890625	-1024.998901367188	-255.6924133300782	1584.409301757813	-1126.196044921875	-238.5454406738282	1621.292602539063	-1096.744262695313	-187.9323883056641	1601.839111328125	-1124.677124023438	-123.3769683837891	1618.026245117188	-1118.801025390625	-112.1212005615235	1551.204833984375	-1080.9755859375	143.8302917480469	1685.338012695313	-1035.614990234375	147.8934326171875	1685.833862304688	-1109.7900390625	226.4604797363282	1726.896118164063	-1031.11376953125	-409.662078857422	1608.384399414063	-708.7930908203126	-233.5406494140626	1573.00732421875	-616.0429077148439	-212.6499023437501	1608.70361328125	-645.3389282226564	-165.6365661621094	1578.337890625	-621.4138793945314	-105.8674087524414	1598.62744140625	-634.8109741210939	-93.47103881835939	1530.125366210938	-670.8611450195314	172.1219482421875	1673.24462890625	-723.5116577148439	175.3638610839844	1666.287841796875	-647.7800903320314	257.8524169921876	1711.942260742188	-718.7246093750001	-275.7912902832032	1117.828857421875	-997.619567871094	-272.4301452636719	1102.143920898438	-770.685974121094	-461.082733154297	1152.648803710938	-878.0051269531252	-461.6045532226564	1122.577026367188	-908.1010742187502	-463.0118713378907	1119.266967773438	-849.6353759765627	-341.0145568847657	832.8982543945315	-1069.32763671875	-307.8001098632813	755.2146606445314	-1068.051513671875	-260.9301147460938	759.5706787109376	-1060.599365234375	-335.3347778320313	702.5396728515626	-1057.0078125	-339.1962585449219	578.8745727539064	-1053.716430664063	-305.7022399902344	552.8320922851564	-942.0112915039065	-289.5534973144532	427.8473510742189	-1034.346801757813	-359.7217407226563	390.2178955078126	-1072.127197265625	-318.3374938964844	383.6437377929688	-1058.067749023438	-319.8094787597657	303.3831481933594	-1020.431396484375	-391.5133666992189	142.5481414794922	-1046.737060546875	-369.4741821289063	139.0025177001953	-963.869323730469	-460.7214355468751	108.7187194824219	-1004.903198242188	-232.8738098144532	57.75974655151369	-1001.142517089844	-242.465805053711	58.10145187377931	-1043.12646484375	-294.3544006347657	44.13576889038087	-1090.684936523438	-315.5578308105469	828.7109375000002	-701.1651611328126	-272.6034851074219	777.9895629882815	-695.1159057617189	-241.2373352050782	783.3840332031252	-700.8281250000001	-294.3210754394532	694.7872314453126	-702.8555908203126	-320.0748901367188	554.6668701171876	-721.8596191406251	-277.1756286621094	539.2017211914064	-832.7145996093752	-290.5918579101563	341.6889648437501	-721.4759521484376	-379.1044006347657	281.4183959960938	-715.5864257812501	-334.2409667968751	270.0559387207032	-710.6467285156251	-316.7167663574219	218.8786315917969	-739.0850830078126	-387.142059326172	128.1509704589844	-714.4900512695314	-353.7682800292969	140.4487762451172	-798.0640869140627	-454.1611328125001	106.0283126831055	-767.9494018554689	-230.6517944335938	56.79154205322267	-774.855407714844	-234.4525756835938	58.77341079711915	-728.5715942382814	-290.9527587890626	40.85051345825196	-678.6098022460939	nan	nan	nan	nan	nan	nan	
273	1.36	-343.2494506835938	1806.25244140625	-797.0874633789065	-498.3959960937501	1758.778198242188	-913.7315063476565	-469.5109863281251	1764.9833984375	-775.3828125000002	-512.3355102539064	1584.332885742188	-866.8550415039065	-468.4341430664064	1278.507202148438	-879.189880371094	nan	nan	nan	-433.9779357910157	1608.149047851563	-1024.889526367188	-255.7162628173829	1584.256958007813	-1126.079467773438	-238.4812927246094	1621.239379882813	-1096.676391601563	-187.9911193847657	1601.73046875	-1124.550415039063	-123.493392944336	1617.975708007813	-1118.703857421875	-112.1697387695313	1551.1552734375	-1080.827880859375	143.916000366211	1685.317626953125	-1035.404296875	147.825424194336	1685.77099609375	-1109.710815429688	226.3778533935547	1726.89111328125	-1031.037475585938	-409.805877685547	1608.377807617188	-708.7401733398439	-233.6265563964844	1573.070922851563	-615.9733276367189	-212.8874053955079	1608.698120117188	-645.2979736328126	-165.8143310546875	1578.456909179688	-621.2982788085939	-105.9709701538086	1598.701538085938	-634.6736450195314	-93.63985443115236	1530.291015625	-670.7391357421876	171.9018707275391	1673.45849609375	-723.2978515625001	175.1284790039063	1666.454345703125	-647.5770874023439	257.6718139648438	1712.181274414063	-718.5223999023439	-275.7034606933594	1117.83447265625	-997.5505371093752	-272.4339904785157	1102.137817382813	-770.6050415039065	-460.8464660644532	1152.278442382813	-878.033874511719	-461.5909423828126	1122.572631835938	-908.142761230469	-463.0059204101564	1119.24755859375	-849.6287231445315	-340.9289550781251	833.1865844726565	-1069.247314453125	-307.6843872070313	755.2467041015626	-1068.024658203125	-260.8287963867188	759.6262207031251	-1060.5556640625	-335.2654113769532	702.5088500976564	-1056.9658203125	-339.1393127441407	578.8939208984376	-1053.673950195313	-305.6468200683594	552.7744750976564	-942.0054321289065	-289.5277709960938	427.8029174804689	-1034.314697265625	-359.7079162597657	390.225311279297	-1072.107421875	-318.4408874511719	383.7167358398438	-1057.986694335938	-319.8038940429688	303.3866271972657	-1020.425476074219	-391.5006103515626	142.5560913085938	-1046.72705078125	-369.5144653320313	138.9958953857422	-963.9033813476565	-460.926239013672	108.8174819946289	-1005.002136230469	-232.8797149658204	57.7821388244629	-1001.101196289063	-242.4214630126954	58.09990310668947	-1043.098999023438	-294.3981018066407	44.13730621337891	-1090.6728515625	-315.6649475097657	828.7808227539065	-701.0629882812501	-272.6909790039063	778.0633544921877	-695.0526123046876	-241.3057861328126	783.410095214844	-700.6691284179689	-294.4205017089844	694.7694091796876	-702.7895507812501	-320.2482299804688	554.4487915039064	-721.8109741210939	-277.1358642578126	539.1854858398439	-832.6076660156252	-290.6421203613282	341.6784057617188	-721.3773193359376	-379.1516723632813	281.4277038574219	-715.5698242187501	-334.2833251953126	270.0562438964844	-710.5908813476564	-316.7786254882813	218.9078369140626	-739.0617065429689	-387.1355895996095	128.121078491211	-714.4696044921876	-353.7359008789063	140.463623046875	-798.0252685546877	-454.1192626953126	106.0128555297852	-767.9773559570314	-230.6231536865235	56.76829528808595	-774.8182373046877	-234.4450073242188	58.8114471435547	-728.5677490234376	-290.9631042480469	40.80940246582032	-678.5745849609376	nan	nan	nan	nan	nan	nan	
274	1.365	-343.3270263671876	1806.133911132813	-796.8555297851565	-498.7005920410157	1758.767333984375	-913.4666748046877	-469.6451721191407	1764.905639648438	-775.209411621094	-512.4433593750001	1584.293090820313	-866.7857666015627	-468.5094299316407	1278.457153320313	-879.2334594726565	nan	nan	nan	-434.0479431152345	1608.073120117188	-1024.72509765625	-255.7851104736329	1584.140502929688	-1125.98193359375	-238.5055084228516	1621.083129882813	-1096.668823242188	-188.041488647461	1601.64208984375	-1124.477416992188	-123.6177139282227	1617.941772460938	-1118.562622070313	-112.2484283447266	1551.123901367188	-1080.718505859375	143.758056640625	1685.359375	-1035.390380859375	147.7445068359375	1685.786865234375	-1109.619018554688	226.3029022216797	1726.867797851563	-1030.91748046875	-410.0250854492189	1608.346435546875	-708.6399536132814	-233.7687530517579	1573.1513671875	-615.8862304687501	-213.0511322021485	1608.746459960938	-645.2216796875001	-165.9522094726563	1578.562866210938	-621.1318359375001	-106.1096496582032	1598.818359375	-634.6055297851564	-93.80123138427736	1530.427001953125	-670.5870971679689	171.7039184570313	1673.583862304688	-723.1641235351564	174.9319610595703	1666.61865234375	-647.4573364257814	257.5086975097657	1712.478759765625	-718.4465942382814	-275.6400756835938	1117.815185546875	-997.3640747070315	-272.5302429199219	1102.069580078125	-770.498474121094	-461.0357666015626	1152.5791015625	-878.198669433594	-461.5231933593751	1122.569702148438	-908.0937500000002	-463.0428466796876	1119.233154296875	-849.6488037109377	-340.7842407226563	832.9088134765627	-1069.25341796875	-307.5640869140626	755.2385253906251	-1067.919189453125	-260.7319335937501	759.5626220703126	-1060.468505859375	-335.1459045410157	702.5331420898439	-1056.921142578125	-339.0516357421876	578.8543701171876	-1053.665283203125	-305.6110229492188	552.8074340820314	-941.980407714844	-289.4692687988282	427.7932739257814	-1034.282348632813	-359.6118164062501	390.2210998535157	-1072.119995117188	-318.4248962402344	383.6622314453126	-1057.912353515625	-319.7568359375001	303.3350219726563	-1020.365844726563	-391.4464721679689	142.5401763916016	-1046.767700195313	-369.4694213867188	138.9815673828125	-963.9016723632815	-460.7605285644532	108.7648544311524	-1004.98681640625	-232.8432769775391	57.79048538208009	-1001.125793457031	-242.4878234863282	58.09583663940431	-1043.141967773438	-294.3871154785157	44.12203598022462	-1090.6728515625	-315.8013610839844	828.803405761719	-700.9901733398439	-272.7857055664063	777.9085083007815	-694.9248046875001	-241.3742828369141	783.4209594726565	-700.5433959960939	-294.4873657226563	694.7708740234376	-702.6912841796876	-320.1605529785157	554.6809692382814	-721.7091064453126	-277.0034179687501	539.2028198242189	-832.4866333007815	-290.7030029296876	341.6825256347657	-721.2617187500001	-379.1958923339844	281.4000854492188	-715.5339965820314	-334.3251647949219	270.0594787597657	-710.5508422851564	-316.7620544433594	218.9240417480469	-738.9381103515626	-387.1995544433595	128.1595153808594	-714.4476318359376	-353.7078247070313	140.4666442871094	-798.0042114257815	-454.1386718750001	105.9980926513672	-767.9443969726564	-230.6438751220704	56.83445739746095	-774.8391113281252	-234.4527435302735	58.7950782775879	-728.5744628906251	-290.9794006347657	40.78145599365235	-678.5564575195314	nan	nan	nan	nan	nan	nan	
